<svg width="15" height="21" viewBox="0 0 15 21" fill="none" xmlns="http://www.w3.org/2000/svg">
<path fill-rule="evenodd" clip-rule="evenodd" d="M5.93921 1.18725L5.9392 1.18725C3.67995 1.75239 1.84473 3.55931 1.22735 5.84373C1.02087 6.60779 0.948176 7.58802 1.03755 8.32196L1.03755 8.32198C1.31902 10.6337 3.00992 14.0436 5.99905 17.953L5.20466 18.5604C2.18923 14.6167 0.359816 11.0295 0.0448835 8.44284C-0.0607696 7.57522 0.0234855 6.46538 0.261985 5.58283C0.972702 2.95306 3.0811 0.871381 5.69653 0.217141C6.04753 0.129337 6.32109 0.0847992 6.97312 0.00926895C7.2314 -0.0206558 8.28424 0.0265096 8.65498 0.084594C11.2573 0.492416 13.5021 2.30588 14.4703 4.78237C15.0346 6.2259 15.1482 7.71972 14.8103 9.25655C14.259 11.7642 12.5081 15.0125 9.79528 18.5604L9.00089 17.953C11.6812 14.4475 13.3288 11.3379 13.8336 9.04182C14.1297 7.69504 14.0301 6.40283 13.539 5.14648C12.6987 2.99733 10.747 1.42465 8.50015 1.07254C8.37447 1.05284 8.06724 1.02816 7.72713 1.01293C7.56509 1.00567 7.41036 1.00121 7.28478 1.00021C7.16522 0.999262 7.10543 1.00191 7.09133 1.00253C7.08858 1.00266 7.08757 1.0027 7.08819 1.00263M7.95042 20.8089C8.16055 20.6166 9.07848 19.4978 9.79528 18.5604L9.00088 17.953C8.64993 18.412 8.24839 18.9171 7.90976 19.3298C7.75413 19.5195 7.61411 19.6868 7.49997 19.8196C7.38583 19.6868 7.24581 19.5195 7.09017 19.3298C6.75155 18.9171 6.35001 18.412 5.99906 17.953L5.20466 18.5604C5.92146 19.4978 6.83938 20.6166 7.04952 20.8089C7.32797 21.0637 7.67196 21.0637 7.95042 20.8089ZM5.98119 4.10018C6.6417 3.80902 7.29584 3.71239 7.97324 3.80598C8.97129 3.94386 9.83548 4.43653 10.4427 5.21384C10.7431 5.59826 11.0253 6.15058 11.1483 6.59456C11.2564 6.98502 11.2973 7.77004 11.2316 8.19527C10.9894 9.76359 9.74004 11.0623 8.18892 11.3582C7.85073 11.4227 7.14921 11.4227 6.81102 11.3582C5.2599 11.0623 4.01054 9.76359 3.76835 8.19527C3.70266 7.77004 3.74355 6.98502 3.85168 6.59456C4.15376 5.50368 4.97224 4.54502 5.98119 4.10018ZM2.78007 8.34789C2.73243 8.03951 2.72897 7.66061 2.74619 7.32988C2.76324 7.00227 2.80556 6.62519 2.88795 6.32769L3.85168 6.59456L2.88795 6.32769C3.26766 4.9565 4.28597 3.75472 5.57776 3.18517L5.57783 3.18514C6.39805 2.82357 7.23869 2.69499 8.1101 2.81539C9.35954 2.988 10.4597 3.61116 11.2308 4.5982C11.6072 5.08001 11.9519 5.74966 12.112 6.32767L12.112 6.32769C12.1944 6.62519 12.2367 7.00227 12.2538 7.32988C12.271 7.66061 12.2675 8.03951 12.2199 8.34789C11.9135 10.3315 10.3458 11.9648 8.3763 12.3405L8.37623 12.3405C8.11556 12.3902 7.78254 12.4065 7.49997 12.4065C7.2174 12.4065 6.88438 12.3902 6.62371 12.3405L6.62364 12.3405C4.65416 11.9648 3.08643 10.3316 2.78008 8.34795" fill="white"/>
</svg>
